<svg xmlns="http://www.w3.org/2000/svg"  viewBox="0 0 100 100" width="500px" height="500px" baseProfile="basic"><path fill="#c7ede6" d="M86.212,57.157c1.135-2.155,1.785-4.605,1.785-7.21c0-6.621-4.159-12.257-10.001-14.478 c0-0.008,0.001-0.015,0.001-0.022c0-11.598-9.402-21-21-21c-9.784,0-17.981,6.701-20.313,15.757 c-1.476-0.485-3.048-0.757-4.687-0.757c-7.692,0-14.023,5.793-14.89,13.252c-5.204,1.1-9.11,5.716-9.11,11.248 c0,6.351,5.149,11.5,11.5,11.5c0.177,0,0.352-0.012,0.526-0.022c-0.004,0.175-0.026,0.346-0.026,0.522 c0,11.322,9.178,20.5,20.5,20.5c6.437,0,12.175-2.972,15.934-7.614c2.178,2.225,5.207,3.614,8.566,3.614 c4.65,0,8.674-2.65,10.666-6.518c1.052,0.334,2.171,0.518,3.334,0.518c6.075,0,11-4.925,11-11 C89.997,62.136,88.527,59.173,86.212,57.157z"/><path fill="#fdfcef" d="M64,37h-6.003c-2.485-0.053-4.5-2.068-4.5-4.553c0-2.333,1.782-4.229,4.055-4.455 c-0.022-0.181-0.055-0.358-0.055-0.545c0-2.485,2.015-4.5,4.5-4.5c1.438,0,2.703,0.686,3.527,1.736 c0.14-2.636,2.302-4.736,4.973-4.736c2.761,0,5,2.239,5,5c0,0.446-0.077,0.87-0.187,1.282c0.642-0.777,1.6-1.282,2.687-1.282 c1.781,0,3.234,1.335,3.455,3.055c0.181-0.022,0.358-0.055,0.545-0.055c2.485,0,4.5,2.015,4.5,4.5s-2.015,4.5-4.5,4.553h-9.5H67v1 h-3V37z"/><path fill="#472b29" d="M70.5,19c3.033,0,5.5,2.467,5.5,5.5c0,0.016,0,0.031,0,0.047C76.602,24.192,77.29,24,78,24 c1.831,0,3.411,1.261,3.858,3.005C81.905,27.002,81.952,27,82,27c3.099,0,5.549,2.834,4.893,6.047 C86.413,35.398,84.204,37,81.804,37H67.125c-0.276,0-0.5-0.224-0.5-0.5s0.224-0.5,0.5-0.5h14.718c1.92,0,3.687-1.282,4.071-3.163 C86.439,30.267,84.479,28,82,28c-0.117,0-0.23,0.017-0.343,0.032l-0.141,0.019c-0.021,0.003-0.041,0.004-0.062,0.004 c-0.246,0-0.462-0.185-0.495-0.437C80.768,26.125,79.496,25,78,25c-0.885,0-1.723,0.401-2.301,1.1 c-0.098,0.118-0.241,0.182-0.386,0.182c-0.078,0-0.156-0.018-0.228-0.056c-0.209-0.107-0.314-0.346-0.254-0.573 c0.16-0.6,0.202-1.069,0.147-1.549c-0.24-2.127-1.959-3.909-4.092-4.088c-2.551-0.215-4.725,1.728-4.859,4.246 c-0.011,0.208-0.15,0.387-0.349,0.45c-0.05,0.016-0.101,0.024-0.152,0.024c-0.15,0-0.296-0.069-0.392-0.192 C64.362,23.563,63.221,23,62,23c-2.206,0-4,1.794-4,4c0,0.117,0.017,0.23,0.032,0.343l0.019,0.141 c0.016,0.134-0.022,0.268-0.106,0.373s-0.207,0.172-0.34,0.185c-2.352,0.234-4.042,2.429-3.504,4.865 C54.509,34.76,56.275,36,58.173,36h5.952c0.276,0,0.5,0.224,0.5,0.5s-0.224,0.5-0.5,0.5h-5.938c-2.467,0-4.708-1.704-5.115-4.138 c-0.462-2.763,1.344-5.22,3.931-5.74C57.001,27.082,57,27.041,57,27c0-2.757,2.243-5,5-5c1.176,0,2.293,0.416,3.183,1.164 C65.781,20.76,67.945,19,70.5,19L70.5,19z"/><path fill="#472b29" d="M71.997,26.447c1.403,0,2.609,0.999,2.913,2.341c0.367-0.222,0.786-0.341,1.212-0.341 c1.202,0,2.198,0.897,2.353,2.068c0.203-0.045,0.396-0.068,0.585-0.068c1.529,0,2.811,1.2,2.918,2.732 c0.009,0.138-0.094,0.257-0.232,0.267c-0.006,0-0.012,0-0.018,0c-0.13,0-0.24-0.101-0.249-0.232 c-0.089-1.271-1.151-2.268-2.419-2.268c-0.229,0-0.47,0.042-0.738,0.127c-0.022,0.007-0.045,0.01-0.067,0.01 c-0.055,0-0.11-0.02-0.156-0.054c-0.064-0.047-0.102-0.129-0.102-0.209c0-1.034-0.841-1.875-1.875-1.875 c-0.447,0-0.885,0.168-1.231,0.473c-0.047,0.041-0.106,0.063-0.165,0.063c-0.032,0-0.063-0.006-0.093-0.019 c-0.088-0.035-0.148-0.117-0.155-0.212c-0.102-1.292-1.191-2.305-2.479-2.305c-0.208,0-0.425,0.034-0.682,0.107 c-0.023,0.007-0.047,0.01-0.07,0.01c-0.109,0-0.207-0.073-0.239-0.182c-0.038-0.133,0.039-0.271,0.172-0.309 C71.48,26.487,71.741,26.447,71.997,26.447L71.997,26.447z"/><path fill="#fff" d="M14.402,49H4.497c-0.276,0-0.5-0.224-0.5-0.5s0.224-0.5,0.5-0.5h9.905c0.276,0,0.5,0.224,0.5,0.5 S14.679,49,14.402,49z"/><path fill="#fff" d="M17.497,49h-1c-0.276,0-0.5-0.224-0.5-0.5s0.224-0.5,0.5-0.5h1c0.276,0,0.5,0.224,0.5,0.5 S17.774,49,17.497,49z"/><path fill="#fff" d="M22.488,51h-8.991c-0.276,0-0.5-0.224-0.5-0.5s0.224-0.5,0.5-0.5h8.991c0.276,0,0.5,0.224,0.5,0.5 S22.764,51,22.488,51z"/><path fill="#fff" d="M11.497,51h-1c-0.276,0-0.5-0.224-0.5-0.5s0.224-0.5,0.5-0.5h1c0.276,0,0.5,0.224,0.5,0.5 S11.774,51,11.497,51z"/><path fill="#fff" d="M8.497,51h-2c-0.276,0-0.5-0.224-0.5-0.5s0.224-0.5,0.5-0.5h2c0.276,0,0.5,0.224,0.5,0.5 S8.774,51,8.497,51z"/><path fill="#fff" d="M14.497,53h-2c-0.276,0-0.5-0.224-0.5-0.5s0.224-0.5,0.5-0.5h2c0.276,0,0.5,0.224,0.5,0.5 S14.773,53,14.497,53z"/><path fill="#fff" d="M17.497,44c-0.177,0-0.823,0-1,0c-0.276,0-0.5,0.224-0.5,0.5s0.224,0.5,0.5,0.5c0.177,0,0.823,0,1,0 c0.276,0,0.5-0.224,0.5-0.5S17.773,44,17.497,44z"/><path fill="#fff" d="M17.497,46c-0.177,0-4.823,0-5,0c-0.276,0-0.5,0.224-0.5,0.5s0.224,0.5,0.5,0.5c0.177,0,4.823,0,5,0 c0.276,0,0.5-0.224,0.5-0.5S17.773,46,17.497,46z"/><path fill="#fff" d="M22.497,48c-0.177,0-2.823,0-3,0c-0.276,0-0.5,0.224-0.5,0.5s0.224,0.5,0.5,0.5c0.177,0,2.823,0,3,0 c0.276,0,0.5-0.224,0.5-0.5S22.773,48,22.497,48z"/><path fill="#fff" d="M88.497,66h-10c-0.276,0-0.5-0.224-0.5-0.5s0.224-0.5,0.5-0.5h10c0.276,0,0.5,0.224,0.5,0.5 S88.773,66,88.497,66z"/><path fill="#fff" d="M92.497,66h-2c-0.276,0-0.5-0.224-0.5-0.5s0.224-0.5,0.5-0.5h2c0.276,0,0.5,0.224,0.5,0.5 S92.773,66,92.497,66z"/><path fill="#fff" d="M97.497,68h-10c-0.276,0-0.5-0.224-0.5-0.5s0.224-0.5,0.5-0.5h10c0.276,0,0.5,0.224,0.5,0.5 S97.774,68,97.497,68z"/><path fill="#fff" d="M85.497,68h-1c-0.276,0-0.5-0.224-0.5-0.5s0.224-0.5,0.5-0.5h1c0.276,0,0.5,0.224,0.5,0.5 S85.773,68,85.497,68z"/><path fill="#fff" d="M82.372,68h-1.875c-0.276,0-0.5-0.224-0.5-0.5s0.224-0.5,0.5-0.5h1.875c0.276,0,0.5,0.224,0.5,0.5 S82.648,68,82.372,68z"/><path fill="#fff" d="M91.497,64h-5c-0.276,0-0.5-0.224-0.5-0.5s0.224-0.5,0.5-0.5h5c0.276,0,0.5,0.224,0.5,0.5 S91.774,64,91.497,64z"/><path fill="#fff" d="M88.497,70h-2c-0.276,0-0.5-0.224-0.5-0.5s0.224-0.5,0.5-0.5h2c0.276,0,0.5,0.224,0.5,0.5 S88.773,70,88.497,70z"/><path fill="#f4cfaf" d="M66.609,75H36.392C32.862,75,30,72.138,30,68.608V38.392C30,34.862,32.862,32,36.392,32h30.216 C70.139,32,73,34.861,73,38.391v30.217C73,72.139,70.139,75,66.609,75z"/><path fill="#73273f" d="M53,32v11l2.201,13.78L52,72l1.196,3h15.165c2.579,0,4.687-2.059,4.747-4.638l0.701-30.121 c0.105-4.52-3.53-8.241-8.051-8.241H53z"/><rect width="5" height="5" x="40" y="52" fill="#472b29"/><rect width="5" height="5" x="40" y="47" fill="#4b4b4b"/><rect width="5" height="5" x="35" y="47" fill="#e4e4e4"/><path fill="#482f1c" d="M54,32H35h0c-2.761,0-5,2.239-5,5v10h5v-6h13.793L53,42L54,32z"/><rect width="5" height="5" x="35" y="52" fill="#fdfcef"/><polygon fill="#93bc39" points="59,47 54,47 53.196,42 59,42"/><rect width="5" height="5" x="54" y="47" fill="#5b7729"/><polygon fill="#93bc39" points="59,60 54.443,60 55.128,57.073 54.345,52 59,52"/><rect width="5" height="5" x="59" y="47" fill="#93bc39"/><rect width="5" height="5" x="35" y="57" fill="#ecb489"/><rect width="5" height="5" x="45" y="42" fill="#ecb489"/><polygon fill="#e4e4e4" points="64,37 53,37 54,32 64,32"/><rect width="5" height="5" x="69" y="47" fill="#fdfcef"/><rect width="5" height="10" x="64" y="37" fill="#fdfcef"/><polygon fill="#5b7729" points="59,65 53.44,65 54.516,60 59,60"/><rect width="5" height="5" x="59" y="60" fill="#93bc39"/><rect width="5" height="5" x="64" y="60" fill="#7b9939"/><rect width="5" height="5" x="64" y="65" fill="#93bc39"/><rect width="5" height="5" x="69" y="60" fill="#5b7729"/><polygon fill="#c52400" points="52,72 46.348,71 40,71 40,66 46.348,66 53,67"/><path fill="#472b29" d="M54,75.5c-0.161,0-0.319-0.078-0.416-0.223l-2-3c-0.074-0.111-0.101-0.248-0.073-0.379l1.666-8.059 c0.057-0.271,0.325-0.448,0.591-0.388c0.271,0.056,0.444,0.32,0.388,0.591l-1.623,7.854l1.884,2.826 c0.153,0.229,0.091,0.54-0.139,0.693C54.192,75.473,54.096,75.5,54,75.5z"/><path fill="#472b29" d="M54.139,62.158c-0.034,0-0.068-0.003-0.103-0.011c-0.271-0.056-0.444-0.32-0.388-0.591l0.949-4.593 c0.056-0.271,0.323-0.448,0.591-0.388c0.271,0.056,0.444,0.32,0.388,0.591l-0.949,4.593C54.578,61.996,54.37,62.158,54.139,62.158z"/><path fill="#472b29" d="M54.655,54.664c-0.243,0-0.457-0.179-0.493-0.427l-1.656-11.164c-0.006-0.033-0.007-0.067-0.005-0.1 l0.652-12.087c0.015-0.275,0.212-0.479,0.526-0.473c0.275,0.015,0.486,0.25,0.472,0.526l-0.649,12.037l1.648,11.114 c0.041,0.273-0.147,0.527-0.421,0.567C54.705,54.662,54.68,54.664,54.655,54.664z"/><path fill="#472b29" d="M67.036,33.4c3.068,0,5.564,2.496,5.564,5.564v30.071c0,3.068-2.496,5.564-5.564,5.564H36.964 c-3.068,0-5.564-2.496-5.564-5.564V38.964c0-3.068,2.496-5.564,5.564-5.564H67.036 M67.036,32H36.964 C33.118,32,30,35.118,30,38.964v30.071C30,72.882,33.118,76,36.964,76h30.071C70.882,76,74,72.882,74,69.036V38.964 C74,35.118,70.882,32,67.036,32L67.036,32z"/><path fill="#fdfcef" d="M23,80h-3.003c-1.933-0.053-3.5-1.62-3.5-3.553c0-1.781,1.335-3.234,3.055-3.455 c-0.028-0.179-0.055-0.358-0.055-0.545c0-1.933,1.567-3.5,3.5-3.5c1.032,0,1.95,0.455,2.59,1.165 c0.384-1.808,1.987-3.165,3.91-3.165c2.209,0,4,1.791,4,4c0,0.191-0.03,0.374-0.056,0.558c0.428-0.344,0.965-0.558,1.556-0.558 c1.228,0,2.245,0.887,2.455,2.055c0.179-0.028,0.358-0.055,0.545-0.055c1.933,0,3.5,1.567,3.5,3.5s-1.567,3.5-3.5,3.553H30l0,0H23 L23,80z"/><path fill="#472b29" d="M21.747,75.044c0.138,0,0.25-0.112,0.25-0.25c0-1.223-0.995-2.218-2.218-2.218 c-0.034,0.009-0.737-0.001-1.244,0.136c-0.133,0.036-0.212,0.173-0.176,0.306c0.036,0.134,0.173,0.213,0.306,0.176 c0.444-0.12,1.1-0.12,1.113-0.118c0.948,0,1.719,0.771,1.719,1.718C21.497,74.932,21.609,75.044,21.747,75.044z"/><circle cx="28.5" cy="79.5" r=".5" fill="#472b29"/><path fill="#472b29" d="M16.165,77.157C16.67,78.889,18.369,80,20.173,80h3.324c0.276,0,0.5-0.224,0.5-0.5 s-0.224-0.5-0.5-0.5h-3.395c-1.243,0-2.435-0.701-2.886-1.859c-0.755-1.939,0.536-3.861,2.399-4.1 c0.134-0.018,0.255-0.088,0.336-0.196s0.115-0.244,0.094-0.377c-0.024-0.153-0.049-0.308-0.049-0.468c0-1.654,1.346-3,3-3 c0.85,0,1.638,0.355,2.219,1c0.125,0.139,0.321,0.198,0.5,0.148c0.182-0.049,0.321-0.195,0.36-0.379 C26.417,68.165,27.856,67,29.497,67c1.93,0,3.5,1.57,3.5,3.5c0,0.143-0.021,0.28-0.041,0.418c-0.029,0.203,0.063,0.438,0.242,0.54 s0.396,0.118,0.556-0.01C34.118,71.155,34.548,71,34.997,71c0.966,0,1.792,0.691,1.963,1.644c0.048,0.267,0.296,0.446,0.569,0.405 C37.682,73.025,37.837,73,37.997,73c1.97,0,3.503,1.908,2.846,3.974C40.447,78.218,39.206,79,37.901,79h-7.404 c-0.276,0-0.5,0.224-0.5,0.5s0.224,0.5,0.5,0.5h7.343c1.92,0,3.687-1.282,4.071-3.163C42.436,74.267,40.476,72,37.997,72 c-0.059,0-0.116,0.002-0.174,0.006C37.409,70.82,36.286,70,34.997,70c-0.349,0-0.689,0.061-1.011,0.18 C33.821,67.847,31.87,66,29.497,66c-1.831,0-3.466,1.127-4.153,2.774C24.663,68.276,23.842,68,22.997,68c-2.206,0-4,1.794-4,4 c0,0.048,0.001,0.095,0.004,0.142C16.899,72.682,15.497,74.869,16.165,77.157z"/><path fill="#472b29" d="M25.497,79c0.159,0,0.841,0,1,0c0.276,0,0.5,0.224,0.5,0.5s-0.224,0.5-0.5,0.5 c-0.159,0-0.841,0-1,0c-0.276,0-0.5-0.224-0.5-0.5S25.221,79,25.497,79z"/></svg>